<svg width="158" height="21" viewBox="0 0 158 21" fill="none" xmlns="http://www.w3.org/2000/svg">
<g clip-path="url(#clip0_15_442)">
<path d="M130.728 2.10156H116.861V4.09195H122.636V19.009H124.976V4.09195H130.728V2.10156Z" fill="#111111"/>
<path d="M87.2686 2.10156V19.009H98.8828V16.9967H89.587V2.10156H87.2686Z" fill="#111111"/>
<path d="M144.53 11.288V9.42883H136.787V4.09195H145.711V2.10156H134.469V19.009H145.93V16.9967H136.787V11.288H144.53Z" fill="#111111"/>
<path d="M107.762 2.10156L100.96 19.009H103.432L108.747 4.35442L114.062 19.009H116.511L109.731 2.10156H107.762Z" fill="#111111"/>
<path fill-rule="evenodd" clip-rule="evenodd" d="M44.4196 12.5128L48.466 19.009H45.8632L42.0574 12.9722H37.7486V19.009H35.4082V2.10156H42.7355C43.4791 2.10156 44.179 2.25467 44.8134 2.56088C45.4477 2.8671 45.9945 3.28267 46.4319 3.78574C46.8912 4.31068 47.2631 4.87936 47.5255 5.53553C47.7661 6.19171 47.8974 6.84788 47.8974 7.52593C47.8974 8.07274 47.8317 8.61955 47.6786 9.14449C47.5255 9.64755 47.2849 10.1506 47.0006 10.5881C46.7381 11.0255 46.3882 11.3973 45.9726 11.7254C45.5789 12.0316 45.1414 12.2722 44.6602 12.4254L44.4196 12.5128ZM44.7696 9.9319C45.0102 9.60381 45.1852 9.25385 45.3383 8.83827C45.4695 8.4227 45.5351 7.98525 45.5351 7.52593C45.5351 7.05932 45.4549 6.62187 45.2945 6.21358C45.1341 5.80529 44.9154 5.44075 44.6384 5.11996C44.3759 4.81374 44.0478 4.57315 43.6979 4.39817C43.3333 4.20861 42.9615 4.11383 42.5824 4.11383H37.7486V10.9818H42.7136C43.1365 10.9818 43.5229 10.887 43.8728 10.6974C44.2228 10.5079 44.5217 10.2527 44.7696 9.9319Z" fill="#111111"/>
<path fill-rule="evenodd" clip-rule="evenodd" d="M60.7575 19.009H52.6865V2.10156H61.4136C61.9823 2.10156 62.5072 2.21092 62.9447 2.45152C63.4113 2.69941 63.805 3.0202 64.1258 3.41391C64.4539 3.80761 64.7164 4.26693 64.8913 4.77C65.0663 5.28036 65.1538 5.79071 65.1538 6.30107C65.1538 7.11035 64.957 7.87589 64.5414 8.5758C64.1477 9.27572 63.5571 9.80066 62.7916 10.1506L62.2885 10.3693L62.8135 10.5225C63.754 10.8068 64.5195 11.3099 65.0663 12.0535C65.6131 12.7753 65.8975 13.6721 65.8975 14.7438C65.8975 15.4 65.7662 15.9906 65.4819 16.5155C65.2194 17.0404 64.8476 17.4998 64.3883 17.8497C63.9508 18.2215 63.3821 18.5059 62.7697 18.7027C62.1354 18.8996 61.4574 19.009 60.7575 19.009ZM55.0269 9.53819H60.2544C60.6189 9.53819 60.9543 9.47257 61.2605 9.34134C61.5667 9.19552 61.8438 9.00596 62.0917 8.77266C62.325 8.52477 62.5073 8.24043 62.6385 7.91963C62.7697 7.58425 62.8353 7.21242 62.8353 6.80414C62.8353 6.01673 62.6166 5.36056 62.1573 4.83562C61.698 4.31068 61.1074 4.04821 60.3856 4.04821H55.0269V9.53819ZM55.0269 17.0404H60.7575C61.1512 17.0404 61.5157 16.9602 61.8511 16.7998C62.1719 16.654 62.4562 16.4572 62.7041 16.2093C62.952 15.9468 63.1488 15.6479 63.2947 15.3125C63.4259 14.9626 63.4915 14.5907 63.4915 14.2189C63.4915 13.8398 63.4259 13.4752 63.2947 13.1253C63.1634 12.7753 62.9884 12.4691 62.7697 12.2066C62.551 11.9442 62.2812 11.7327 61.9604 11.5723C61.6396 11.4119 61.297 11.3317 60.9324 11.3317H55.0269V17.0404Z" fill="#111111"/>
<path d="M29.699 11.288V9.42883H21.9562V4.09195H30.8801V2.10156H19.6377V19.009H31.0989V16.9967H21.9562V11.288H29.699Z" fill="#111111"/>
<path d="M74.9322 2.10156L68.1299 19.009H70.6233L75.9165 4.35442L81.2315 19.009H83.7031L76.9007 2.10156H74.9322Z" fill="#111111"/>
<path d="M13.6233 2.10156L8.28639 16.3405L2.90577 2.10156H0.456055L7.25838 19.009H9.33626L16.073 2.10156H13.6233Z" fill="#111111"/>
<path d="M150.261 2.69212H149.146V2.10156C150.174 2.10156 151.027 2.10156 152.033 2.10156V2.69212H150.939V5.60115H150.261V2.69212Z" fill="#111111"/>
<path d="M155.489 3.06395L154.351 4.59502H154.22L153.104 3.06395V5.60115H152.448V2.10156H153.192L154.307 3.61076L155.401 2.10156H156.145V5.60115H155.489V3.06395Z" fill="#111111"/>
</g>
<defs>
<clipPath id="clip0_15_442">
<rect width="157.919" height="20.1226" fill="white" transform="translate(0.0410156 0.439453)"/>
</clipPath>
</defs>
</svg>
