<svg width="24" height="24" viewBox="0 0 24 24" fill="none" xmlns="http://www.w3.org/2000/svg">
<g clip-path="url(#clip0_42_456)">
<path d="M20.5 7.48499C18.2457 7.48499 16.0837 8.38052 14.4896 9.97458C12.8955 11.5686 12 13.7306 12 15.985C14.2543 15.985 16.4163 15.0895 18.0104 13.4954C19.6045 11.9013 20.5 9.73933 20.5 7.48499Z" stroke="#F4F4ED" stroke-linecap="round" stroke-linejoin="round"/>
<path d="M14.236 10.24C14.8191 8.57154 14.9196 6.7724 14.5258 5.04941C14.132 3.32641 13.26 1.74952 12.01 0.5C10.7558 1.75455 9.88259 3.33869 9.49148 5.06899C9.10036 6.79929 9.20733 8.60498 9.8 10.277" stroke="#F4F4ED" stroke-linecap="round" stroke-linejoin="round"/>
<path d="M3.5 7.48499C5.75434 7.48499 7.91635 8.38052 9.51041 9.97458C11.1045 11.5686 12 13.7306 12 15.985C9.74566 15.985 7.58365 15.0895 5.98959 13.4954C4.39553 11.9013 3.5 9.73933 3.5 7.48499Z" stroke="#F4F4ED" stroke-linecap="round" stroke-linejoin="round"/>
<path d="M12 18V15.485" stroke="#F4F4ED" stroke-linecap="round" stroke-linejoin="round"/>
<path d="M22.969 23.5C22.8746 22.7269 22.5556 21.9985 22.0514 21.4048C21.5473 20.8111 20.8802 20.3783 20.1327 20.1598C19.3851 19.9414 18.5899 19.9469 17.8454 20.1756C17.1009 20.4044 16.4399 20.8464 15.944 21.447C15.8148 20.4927 15.3439 19.6176 14.6187 18.9839C13.8934 18.3503 12.963 18.0011 12 18.0011C11.037 18.0011 10.1066 18.3503 9.38135 18.9839C8.65612 19.6176 8.18524 20.4927 8.056 21.447C7.56013 20.8464 6.89906 20.4044 6.15459 20.1756C5.41012 19.9469 4.61491 19.9414 3.86735 20.1598C3.11979 20.3783 2.45268 20.8111 1.94856 21.4048C1.44444 21.9985 1.12543 22.7269 1.031 23.5" stroke="#F4F4ED" stroke-linecap="round" stroke-linejoin="round"/>
</g>
<defs>
<clipPath id="clip0_42_456">
<rect width="24" height="24" fill="white"/>
</clipPath>
</defs>
</svg>
