<svg width="24" height="24" viewBox="0 0 24 24" fill="none" xmlns="http://www.w3.org/2000/svg">
<g clip-path="url(#clip0_42_436)">
<path d="M3.13699 7.39102C3.78694 5.61615 4.90393 4.04963 6.3701 2.85676C7.83627 1.6639 9.59725 0.888908 11.4672 0.613583C13.3372 0.338259 15.2468 0.572803 16.9946 1.29247C18.7423 2.01214 20.2634 3.19024 21.3973 4.70245C22.5313 6.21467 23.236 8.00493 23.4371 9.88433C23.6382 11.7637 23.3283 13.6625 22.54 15.3805C21.7518 17.0984 20.5144 18.5717 18.9585 19.6449C17.4026 20.7181 15.5859 21.3514 13.7 21.478" stroke="#F4F4ED" stroke-linecap="round" stroke-linejoin="round"/>
<path d="M10.25 8.5C10.1119 8.5 10 8.38807 10 8.25C10 8.11193 10.1119 8 10.25 8" stroke="#F4F4ED"/>
<path d="M10.25 8.5C10.3881 8.5 10.5 8.38807 10.5 8.25C10.5 8.11193 10.3881 8 10.25 8" stroke="#F4F4ED"/>
<path d="M19.2535 8.5C19.1154 8.5 19.0035 8.38807 19.0035 8.25C19.0035 8.11193 19.1154 8 19.2535 8" stroke="#F4F4ED"/>
<path d="M19.2535 8.5C19.3916 8.5 19.5035 8.38807 19.5035 8.25C19.5035 8.11193 19.3916 8 19.2535 8" stroke="#F4F4ED"/>
<path d="M18.178 11.992C18.3022 11.988 18.4257 12.0131 18.5385 12.0651C18.6514 12.1172 18.7506 12.1948 18.8282 12.2918C18.9058 12.3889 18.9598 12.5027 18.9858 12.6242C19.0118 12.7458 19.0091 12.8717 18.978 12.992C18.6899 14.0313 18.0049 14.9158 17.0707 15.4547C16.1365 15.9936 15.0279 16.1438 13.984 15.873C13.2787 15.7013 12.6326 15.3434 12.1129 14.8366C11.5933 14.3298 11.2193 13.6927 11.03 12.992C11.0039 12.8892 10.9985 12.7823 11.0141 12.6774C11.0298 12.5725 11.0661 12.4718 11.121 12.381C11.1759 12.2903 11.2483 12.2114 11.3339 12.1489C11.4196 12.0864 11.5168 12.0416 11.62 12.017C11.6874 12.0003 11.7566 11.9919 11.826 11.992H18.178Z" stroke="#F4F4ED" stroke-linecap="round" stroke-linejoin="round"/>
<path d="M2 14.71L1.348 12.718C1.21778 12.3223 1.24996 11.8911 1.43746 11.5191C1.62496 11.1471 1.95245 10.8647 2.348 10.734C2.74437 10.6043 3.17603 10.6373 3.54807 10.8257C3.92012 11.0142 4.20209 11.3427 4.332 11.739L4.985 13.731" stroke="#F4F4ED" stroke-linecap="round" stroke-linejoin="round"/>
<path d="M8.34699 13.887L8.338 13.859C8.24171 13.5656 8.03291 13.3225 7.75746 13.183C7.48202 13.0435 7.16246 13.019 6.86899 13.115L5.09999 13.7L4.37499 13.937L3.11399 14.351C2.15933 14.6638 1.36778 15.3425 0.913121 16.2384C0.458463 17.1342 0.377856 18.1738 0.688995 19.129L1.26599 20.888C1.57911 21.8435 2.25887 22.6355 3.1558 23.0898C4.05274 23.5442 5.09342 23.6238 6.04899 23.311L7.30999 22.9L9.80999 22.083C10.1034 21.9865 10.3466 21.7775 10.4861 21.5019C10.6256 21.2263 10.65 20.9066 10.554 20.613L10.545 20.586C10.4975 20.4406 10.4219 20.3059 10.3223 20.1898C10.2228 20.0736 10.1013 19.9782 9.96492 19.909C9.82849 19.8398 9.67975 19.7982 9.52722 19.7865C9.3747 19.7749 9.22136 19.7934 9.07599 19.841C9.36936 19.7447 9.6125 19.5359 9.752 19.2605C9.8915 18.985 9.91596 18.6655 9.81999 18.372L9.81099 18.344C9.71472 18.0504 9.50576 17.8071 9.23008 17.6676C8.9544 17.528 8.63459 17.5037 8.34099 17.6C8.48642 17.5525 8.62106 17.4769 8.73723 17.3773C8.85339 17.2778 8.9488 17.1564 9.01799 17.0199C9.08718 16.8835 9.1288 16.7348 9.14047 16.5822C9.15214 16.4297 9.13363 16.2764 9.08599 16.131L9.07299 16.1C8.97649 15.8066 8.7675 15.5634 8.4919 15.4239C8.21629 15.2844 7.89659 15.26 7.60299 15.356C7.74841 15.3085 7.88303 15.2329 7.99916 15.1333C8.11528 15.0338 8.21063 14.9123 8.27974 14.7758C8.34885 14.6394 8.39036 14.4906 8.4019 14.3381C8.41345 14.1856 8.39479 14.0323 8.34699 13.887Z" stroke="#F4F4ED" stroke-linecap="round" stroke-linejoin="round"/>
<path d="M5.10001 13.7L6.87101 13.12C7.16447 13.024 7.48403 13.0485 7.75948 13.188C8.03492 13.3275 8.24372 13.5706 8.34001 13.864L8.34901 13.892C8.44349 14.1855 8.4177 14.5044 8.27728 14.7789C8.13685 15.0534 7.89328 15.2609 7.60001 15.356L5.82901 15.936" stroke="#F4F4ED" stroke-linecap="round" stroke-linejoin="round"/>
<path d="M5.832 15.936L7.603 15.356C7.8966 15.26 8.2163 15.2844 8.4919 15.4239C8.76751 15.5634 8.9765 15.8066 9.073 16.1L9.082 16.128C9.13009 16.2736 9.14895 16.4272 9.13751 16.58C9.12607 16.7329 9.08454 16.882 9.01532 17.0188C8.9461 17.1556 8.85054 17.2773 8.73413 17.377C8.61773 17.4768 8.48277 17.5526 8.337 17.6L6.567 18.18" stroke="#F4F4ED" stroke-linecap="round" stroke-linejoin="round"/>
<path d="M6.567 18.177L8.337 17.597C8.6306 17.5007 8.95041 17.525 9.22609 17.6646C9.50177 17.8041 9.71073 18.0474 9.807 18.341L9.816 18.369C9.91197 18.6625 9.88751 18.982 9.74801 19.2575C9.6085 19.5329 9.36536 19.7417 9.072 19.838L7.3 20.419" stroke="#F4F4ED" stroke-linecap="round" stroke-linejoin="round"/>
<path d="M7.3 20.419L9.071 19.838C9.21637 19.7904 9.3697 19.7719 9.52223 19.7835C9.67476 19.7952 9.82349 19.8368 9.95993 19.906C10.0964 19.9752 10.2178 20.0706 10.3173 20.1868C10.4169 20.3029 10.4925 20.4376 10.54 20.583L10.549 20.61C10.645 20.9036 10.6206 21.2233 10.4811 21.4989C10.3416 21.7745 10.0984 21.9835 9.805 22.08L8.034 22.66" stroke="#F4F4ED" stroke-linecap="round" stroke-linejoin="round"/>
</g>
<defs>
<clipPath id="clip0_42_436">
<rect width="24" height="24" fill="white"/>
</clipPath>
</defs>
</svg>
