<svg width="24" height="24" viewBox="0 0 24 24" fill="none" xmlns="http://www.w3.org/2000/svg">
<g clip-path="url(#clip0_42_449)">
<path d="M7.25 7.25L13.35 1.15C13.3965 1.10252 13.4521 1.06479 13.5134 1.03904C13.5747 1.01328 13.6405 1.00001 13.707 1H21.793C21.8919 1.00002 21.9886 1.02939 22.0709 1.0844C22.1531 1.1394 22.2172 1.21757 22.255 1.309C22.2928 1.40043 22.3026 1.50102 22.2832 1.59804C22.2638 1.69505 22.216 1.78413 22.146 1.854L12 12" stroke="#F4F4ED" stroke-linecap="round" stroke-linejoin="round"/>
<path d="M16.75 7.25L22.85 13.35C22.9435 13.4437 22.996 13.5706 22.996 13.703V21.789C22.996 21.8879 22.9666 21.9846 22.9116 22.0669C22.8566 22.1491 22.7784 22.2132 22.687 22.251C22.5956 22.2888 22.495 22.2986 22.398 22.2792C22.3009 22.2598 22.2119 22.212 22.142 22.142L12 12" stroke="#F4F4ED" stroke-linecap="round" stroke-linejoin="round"/>
<path d="M16.75 16.75L10.65 22.85C10.5563 22.9435 10.4294 22.996 10.297 22.996H2.207C2.10806 22.996 2.01136 22.9666 1.92912 22.9116C1.84689 22.8566 1.78282 22.7784 1.74502 22.687C1.70723 22.5956 1.69741 22.495 1.71681 22.398C1.73621 22.3009 1.78395 22.2119 1.854 22.142L12 12" stroke="#F4F4ED" stroke-linecap="round" stroke-linejoin="round"/>
<path d="M7.25 16.75L1.15 10.65C1.10252 10.6034 1.06479 10.5479 1.03904 10.4866C1.01328 10.4253 1.00001 10.3595 1 10.293V2.20699C1.00002 2.10805 1.02939 2.01135 1.0844 1.92911C1.1394 1.84687 1.21757 1.78281 1.309 1.74501C1.40043 1.70722 1.50102 1.6974 1.59804 1.7168C1.69505 1.7362 1.78413 1.78394 1.854 1.85399L12 12" stroke="#F4F4ED" stroke-linecap="round" stroke-linejoin="round"/>
<path d="M12 21.5V2.5" stroke="#F4F4ED" stroke-linecap="round" stroke-linejoin="round"/>
<path d="M2.5 12H21.5" stroke="#F4F4ED" stroke-linecap="round" stroke-linejoin="round"/>
</g>
<defs>
<clipPath id="clip0_42_449">
<rect width="24" height="24" fill="white"/>
</clipPath>
</defs>
</svg>
